<svg width="398" height="136" fill="none" xmlns="http://www.w3.org/2000/svg"><path d="M172.656 96.442h-17.137c-2.372 0-2.421.086-1.533 2.336 3.157 7.937 12.203 11.522 20.871 8.19a24.31 24.31 0 0 0 4.369-2.255c.952-.609 1.461-.641 2.111.365 1.222 1.881 2.494 3.743 3.892 5.497.974 1.222.902 1.89-.451 2.769-5.479 3.558-11.486 4.902-17.948 4.704-13.078-.406-23.067-8.983-25.281-21.827-2.67-15.468 8.482-28.924 24.266-29.312 9.822-.244 17.993 2.845 23.242 11.64 2.986 4.996 3.775 10.47 3.27 16.234-.122 1.384-.555 1.727-1.885 1.713-5.921-.09-11.851-.054-17.786-.054zM153.558 87h26.106c1.682 0 .848-1.037.6-1.646-2.066-5.123-5.899-7.923-11.365-8.568-7.531-.884-14.074 3.391-15.341 10.214zM314.895 96.44c1.727 8.221 9.709 13.154 18.115 11.486a20.425 20.425 0 0 0 7.607-3.157c.988-.672 1.529-.785 2.255.365a68.873 68.873 0 0 0 4.131 5.863c.681.87.627 1.352-.23 1.939-13.98 9.835-38.413 5.831-43.261-14.35-4.157-17.308 7.694-32.92 27.378-31.68 15.923 1.024 24.392 13.953 22.927 27.802-.162 1.533-.762 1.736-2.079 1.732-11.409-.046-22.823-.028-34.232-.028l-2.611.028zm27.116-9.52c-1.015-5.975-6.49-10.156-13.263-10.187-7.215-.032-12.595 3.945-13.75 10.187h27.013zM202.097 98.928c0-5.028.112-10.065-.032-15.093-.122-4.38 2.53-7.301 5.177-10.088 8.284-8.722 24.988-9.353 33.921-1.38 4.275 3.815 6.169 8.807 6.233 14.43.103 9.615 0 19.229.049 28.862 0 1.217-.234 1.75-1.592 1.7a106.135 106.135 0 0 0-8.117 0c-1.438.059-1.732-.451-1.723-1.804.054-9.088.054-18.177 0-27.265-.036-5.97-3.201-10.011-8.505-11.12-7.598-1.588-14.074 3.607-14.097 11.382 0 8.938-.04 17.876.032 26.814 0 1.519-.329 2.097-1.948 2.007a70.322 70.322 0 0 0-7.432 0c-1.542.076-2.052-.334-2.025-1.958.126-5.519.059-11.003.059-16.487zM280.782 82.143c-3.003 0-6.007.04-9.019-.022-1.132-.028-1.578.243-1.565 1.479.068 5.862-.036 11.725.063 17.565.113 6.764 5.141 7.639 9.624 6.358 1.898-.546 2.931-2.07 3.346-3.914.276-1.319.427-2.662.451-4.01.076-3.215.036-3.215 3.359-3.215h6.765c.766 0 1.244.05 1.254 1.047.027 3.382-.001 6.764-1.146 9.993-1.774 5.009-5.213 8.26-10.318 9.754a23.898 23.898 0 0 1-12.667.194c-7.31-1.844-11.906-7.603-11.978-15.445-.135-14.562-.027-29.123-.063-43.685 0-1.127.221-1.583 1.466-1.542 2.773.094 5.556.103 8.329 0 1.353-.05 1.601.424 1.583 1.65-.072 4.127 0 8.257-.059 12.384-.027 1.308.406 1.632 1.655 1.619 5.781-.059 11.567.027 17.344-.059 1.596-.027 2.332.262 2.183 2.065a41.891 41.891 0 0 0 0 6.075c.085 1.443-.451 1.804-1.804 1.74-2.945-.103-5.872-.031-8.803-.031zM363.507 97.49c0-5.253.217-10.52-.063-15.783-.243-4.645 1.962-7.942 5.173-10.675 6.313-5.344 16.879-5.655 23.292-.974 1.307.952 1.939 1.741.532 3.134-.789.785-1.353 1.804-2.002 2.706-.844 1.15-1.466 2.66-2.593 3.346-1.263.771-2.111-1.123-3.396-1.434-6.449-1.565-9.624.902-9.615 6.557 0 10.287-.04 20.578.045 30.864 0 1.646-.324 2.219-2.06 2.088a48.7 48.7 0 0 0-6.981 0c-1.804.122-2.436-.307-2.381-2.255.148-5.853.049-11.716.049-17.574zM108.309 97.514c0-5.182.217-10.372-.058-15.54-.266-4.988 2.11-8.47 5.686-11.315 6.264-4.987 16.853-5.091 22.945-.482 1.294.978 1.547 1.677.401 3.003a65.885 65.885 0 0 0-4.139 5.61c-.532.771-.929 1.001-1.714.298a6.676 6.676 0 0 0-3.427-1.579c-5.497-.902-8.316 1.407-8.348 7.049-.06 10.137-.06 20.275 0 30.413 0 1.776-.266 2.543-2.254 2.376a48.822 48.822 0 0 0-7.216 0c-1.655.104-1.957-.514-1.934-2.029.112-5.939.058-11.874.058-17.804z" fill="#fff"/><path d="M60.456 67.108c8.951 0 17.908-.054 26.86 0 5.997.05 9.47 3.003 9.266 7.666-.203 4.663-3.319 7.216-9.136 7.243-6.282.045-22.692-.05-22.692-.05s-4.726 21.281-6.765 29.989c-2.98 12.627-12.536 20.293-24.933 20.036-11.5-.221-20.911-8.352-23.346-20.212-1.191-5.813.054-11.274 2.886-16.334 2.12-3.806 5.903-4.96 9.655-3.224 3.99 1.804 4.83 5.069 3.919 9.019-.244 1.055-.835 2.025-1.2 3.058a9.44 9.44 0 0 0 2.525 10.318 9.448 9.448 0 0 0 3.216 1.903c4.69 1.7 10.476-.623 11.883-5.61 2.417-8.596 6.836-28.862 6.836-28.862s-12.46.09-16.852 0c-5.448-.126-8.415-2.85-8.361-7.459.054-4.608 2.95-7.36 8.45-7.436 9.25-.144 18.522-.05 27.789-.045zM111.191 29.175c.248 3.396-.749 7.161-2.589 10.701-2.21 4.266-6.246 5.863-10.178 4.158-3.932-1.704-5.258-5.804-3.486-10.318 2.232-5.686 1.43-9.88-2.426-12.694-5.669-4.131-12.798-1.633-14.764 5.488-1.755 6.367-6.192 26.498-6.192 26.498H55.32s6.188-24.117 8.045-31.08C66.433 10.47 78.207 2.591 89.486 4.21c12.997 1.867 21.705 11.644 21.705 24.965z" fill="#3AFC97"/></svg>